<mxfile host="app.diagrams.net" modified="2021-10-04T05:04:33.157Z" agent="5.0 (Macintosh; Intel Mac OS X 10_15_7) AppleWebKit/537.36 (KHTML, like Gecko) Chrome/94.0.4606.61 Safari/537.36" etag="9shWQcKEex3vvk07i-pj" version="15.4.1" type="github">
  <diagram id="VedxOytm3eUryzFoK-hj" name="Page-1">
    <mxGraphModel dx="946" dy="589" grid="1" gridSize="10" guides="1" tooltips="1" connect="1" arrows="1" fold="1" page="1" pageScale="1" pageWidth="850" pageHeight="1100" math="0" shadow="0">
      <root>
        <mxCell id="0" />
        <mxCell id="1" parent="0" />
        <mxCell id="Kt5mrEsqTJRS2e92DxHP-1" value="" style="rounded=0;whiteSpace=wrap;html=1;" parent="1" vertex="1">
          <mxGeometry x="190" y="220" width="470" height="117.5" as="geometry" />
        </mxCell>
        <mxCell id="Kt5mrEsqTJRS2e92DxHP-2" value="" style="rounded=0;whiteSpace=wrap;html=1;" parent="1" vertex="1">
          <mxGeometry x="20" y="460" width="240" height="60" as="geometry" />
        </mxCell>
        <mxCell id="Kt5mrEsqTJRS2e92DxHP-3" value="" style="rounded=0;whiteSpace=wrap;html=1;" parent="1" vertex="1">
          <mxGeometry x="600" y="460" width="240" height="60" as="geometry" />
        </mxCell>
        <mxCell id="Kt5mrEsqTJRS2e92DxHP-4" value="" style="rounded=0;whiteSpace=wrap;html=1;" parent="1" vertex="1">
          <mxGeometry x="310" y="460" width="240" height="60" as="geometry" />
        </mxCell>
        <mxCell id="Kt5mrEsqTJRS2e92DxHP-5" value="" style="rounded=1;whiteSpace=wrap;html=1;" parent="1" vertex="1">
          <mxGeometry x="20" y="580" width="80" height="60" as="geometry" />
        </mxCell>
        <mxCell id="Kt5mrEsqTJRS2e92DxHP-6" value="" style="rounded=1;whiteSpace=wrap;html=1;" parent="1" vertex="1">
          <mxGeometry x="110" y="580" width="80" height="60" as="geometry" />
        </mxCell>
        <mxCell id="Kt5mrEsqTJRS2e92DxHP-7" value="" style="rounded=1;whiteSpace=wrap;html=1;" parent="1" vertex="1">
          <mxGeometry x="200" y="580" width="80" height="60" as="geometry" />
        </mxCell>
        <mxCell id="Kt5mrEsqTJRS2e92DxHP-8" value="" style="rounded=1;whiteSpace=wrap;html=1;" parent="1" vertex="1">
          <mxGeometry x="300" y="580" width="80" height="60" as="geometry" />
        </mxCell>
        <mxCell id="Kt5mrEsqTJRS2e92DxHP-9" value="" style="rounded=1;whiteSpace=wrap;html=1;" parent="1" vertex="1">
          <mxGeometry x="390" y="580" width="80" height="60" as="geometry" />
        </mxCell>
        <mxCell id="Kt5mrEsqTJRS2e92DxHP-10" value="" style="rounded=1;whiteSpace=wrap;html=1;" parent="1" vertex="1">
          <mxGeometry x="480" y="580" width="80" height="60" as="geometry" />
        </mxCell>
        <mxCell id="Kt5mrEsqTJRS2e92DxHP-11" value="" style="rounded=1;whiteSpace=wrap;html=1;" parent="1" vertex="1">
          <mxGeometry x="580" y="580" width="80" height="60" as="geometry" />
        </mxCell>
        <mxCell id="Kt5mrEsqTJRS2e92DxHP-12" value="" style="rounded=1;whiteSpace=wrap;html=1;" parent="1" vertex="1">
          <mxGeometry x="670" y="580" width="80" height="60" as="geometry" />
        </mxCell>
        <mxCell id="Kt5mrEsqTJRS2e92DxHP-13" value="" style="rounded=1;whiteSpace=wrap;html=1;" parent="1" vertex="1">
          <mxGeometry x="760" y="580" width="80" height="60" as="geometry" />
        </mxCell>
        <mxCell id="Kt5mrEsqTJRS2e92DxHP-14" value="Building Brand Awareness &amp;amp; Launching new Services" style="text;html=1;strokeColor=none;fillColor=none;align=center;verticalAlign=middle;whiteSpace=wrap;rounded=0;" parent="1" vertex="1">
          <mxGeometry x="240" y="250" width="380" height="60" as="geometry" />
        </mxCell>
        <mxCell id="Kt5mrEsqTJRS2e92DxHP-15" value="ES has not optimized it&#39;s online presence" style="text;html=1;strokeColor=none;fillColor=none;align=center;verticalAlign=middle;whiteSpace=wrap;rounded=0;" parent="1" vertex="1">
          <mxGeometry x="30" y="475" width="220" height="30" as="geometry" />
        </mxCell>
        <mxCell id="Kt5mrEsqTJRS2e92DxHP-16" value="Building brand awareness will assist in creating stronger growth for the company" style="text;html=1;strokeColor=none;fillColor=none;align=center;verticalAlign=middle;whiteSpace=wrap;rounded=0;" parent="1" vertex="1">
          <mxGeometry x="320" y="475" width="220" height="30" as="geometry" />
        </mxCell>
        <mxCell id="Kt5mrEsqTJRS2e92DxHP-17" value="Some of the most effective ways to build brand awareness is to leverage our social media networks" style="text;html=1;strokeColor=none;fillColor=none;align=center;verticalAlign=middle;whiteSpace=wrap;rounded=0;" parent="1" vertex="1">
          <mxGeometry x="610" y="475" width="220" height="30" as="geometry" />
        </mxCell>
        <mxCell id="Kt5mrEsqTJRS2e92DxHP-18" value="The Situation: Express Solutions has been in business for over ten years, but has failed to build proper brand awareness or establish a consistent sales funnel of repeat clientele" style="text;html=1;strokeColor=none;fillColor=none;align=left;verticalAlign=middle;whiteSpace=wrap;rounded=0;" parent="1" vertex="1">
          <mxGeometry x="120" y="70" width="670" height="30" as="geometry" />
        </mxCell>
        <mxCell id="Kt5mrEsqTJRS2e92DxHP-19" value="The Problem: The lack of brand awareness is hendering the company&#39;s ability to sustain steady growth" style="text;html=1;strokeColor=none;fillColor=none;align=left;verticalAlign=middle;whiteSpace=wrap;rounded=0;" parent="1" vertex="1">
          <mxGeometry x="120" y="110" width="650" height="30" as="geometry" />
        </mxCell>
        <mxCell id="Kt5mrEsqTJRS2e92DxHP-20" value="Answer: Develop and optimize the online marketability of Express Solutions through social media networks (LinkedIn) and other platforms that allow a consultative company like this to showcase their talents." style="text;html=1;strokeColor=none;fillColor=none;align=left;verticalAlign=middle;whiteSpace=wrap;rounded=0;" parent="1" vertex="1">
          <mxGeometry x="120" y="150" width="650" height="30" as="geometry" />
        </mxCell>
        <mxCell id="PSpmaVROnx2pn07-DeVL-1" value="BCG Case Study" style="text;html=1;strokeColor=none;fillColor=none;align=center;verticalAlign=middle;whiteSpace=wrap;rounded=0;" vertex="1" parent="1">
          <mxGeometry x="30" y="595" width="60" height="30" as="geometry" />
        </mxCell>
        <mxCell id="PSpmaVROnx2pn07-DeVL-2" value="Target Market Analysis" style="text;html=1;strokeColor=none;fillColor=none;align=center;verticalAlign=middle;whiteSpace=wrap;rounded=0;" vertex="1" parent="1">
          <mxGeometry x="120" y="595" width="60" height="30" as="geometry" />
        </mxCell>
        <mxCell id="PSpmaVROnx2pn07-DeVL-3" value="Competitive Advantage" style="text;html=1;strokeColor=none;fillColor=none;align=center;verticalAlign=middle;whiteSpace=wrap;rounded=0;" vertex="1" parent="1">
          <mxGeometry x="210" y="595" width="60" height="30" as="geometry" />
        </mxCell>
        <mxCell id="PSpmaVROnx2pn07-DeVL-4" value="Barrier of Entry" style="text;html=1;strokeColor=none;fillColor=none;align=center;verticalAlign=middle;whiteSpace=wrap;rounded=0;" vertex="1" parent="1">
          <mxGeometry x="310" y="595" width="60" height="30" as="geometry" />
        </mxCell>
        <mxCell id="PSpmaVROnx2pn07-DeVL-5" value="Differentiating Value" style="text;html=1;strokeColor=none;fillColor=none;align=center;verticalAlign=middle;whiteSpace=wrap;rounded=0;" vertex="1" parent="1">
          <mxGeometry x="400" y="595" width="60" height="30" as="geometry" />
        </mxCell>
        <mxCell id="PSpmaVROnx2pn07-DeVL-6" value="Strong Logo and Visual Presence" style="text;html=1;strokeColor=none;fillColor=none;align=center;verticalAlign=middle;whiteSpace=wrap;rounded=0;" vertex="1" parent="1">
          <mxGeometry x="490" y="595" width="60" height="30" as="geometry" />
        </mxCell>
        <mxCell id="PSpmaVROnx2pn07-DeVL-7" value="Create Sales Funnel" style="text;html=1;strokeColor=none;fillColor=none;align=center;verticalAlign=middle;whiteSpace=wrap;rounded=0;" vertex="1" parent="1">
          <mxGeometry x="590" y="595" width="60" height="30" as="geometry" />
        </mxCell>
        <mxCell id="PSpmaVROnx2pn07-DeVL-8" value="Create Workshops" style="text;html=1;strokeColor=none;fillColor=none;align=center;verticalAlign=middle;whiteSpace=wrap;rounded=0;" vertex="1" parent="1">
          <mxGeometry x="680" y="595" width="60" height="30" as="geometry" />
        </mxCell>
        <mxCell id="PSpmaVROnx2pn07-DeVL-9" value="Small Business needs post COVID" style="text;html=1;strokeColor=none;fillColor=none;align=center;verticalAlign=middle;whiteSpace=wrap;rounded=0;" vertex="1" parent="1">
          <mxGeometry x="770" y="595" width="60" height="30" as="geometry" />
        </mxCell>
        <mxCell id="PSpmaVROnx2pn07-DeVL-10" value="" style="endArrow=classic;html=1;rounded=0;edgeStyle=orthogonalEdgeStyle;entryX=0.542;entryY=-0.033;entryDx=0;entryDy=0;entryPerimeter=0;" edge="1" parent="1" target="Kt5mrEsqTJRS2e92DxHP-2">
          <mxGeometry relative="1" as="geometry">
            <mxPoint x="440" y="360" as="sourcePoint" />
            <mxPoint x="230" y="390" as="targetPoint" />
          </mxGeometry>
        </mxCell>
        <mxCell id="PSpmaVROnx2pn07-DeVL-11" value="WHAT" style="edgeLabel;resizable=0;html=1;align=center;verticalAlign=middle;" connectable="0" vertex="1" parent="PSpmaVROnx2pn07-DeVL-10">
          <mxGeometry relative="1" as="geometry" />
        </mxCell>
        <mxCell id="PSpmaVROnx2pn07-DeVL-12" value="" style="shape=link;html=1;rounded=0;edgeStyle=orthogonalEdgeStyle;" edge="1" parent="1">
          <mxGeometry width="100" relative="1" as="geometry">
            <mxPoint x="440" y="360" as="sourcePoint" />
            <mxPoint x="440" y="450" as="targetPoint" />
          </mxGeometry>
        </mxCell>
        <mxCell id="PSpmaVROnx2pn07-DeVL-13" value="" style="endArrow=classic;html=1;rounded=0;edgeStyle=orthogonalEdgeStyle;entryX=0.538;entryY=-0.067;entryDx=0;entryDy=0;entryPerimeter=0;" edge="1" parent="1" target="Kt5mrEsqTJRS2e92DxHP-3">
          <mxGeometry relative="1" as="geometry">
            <mxPoint x="440" y="360" as="sourcePoint" />
            <mxPoint x="730" y="390" as="targetPoint" />
          </mxGeometry>
        </mxCell>
        <mxCell id="PSpmaVROnx2pn07-DeVL-14" value="HOW" style="edgeLabel;resizable=0;html=1;align=center;verticalAlign=middle;" connectable="0" vertex="1" parent="PSpmaVROnx2pn07-DeVL-13">
          <mxGeometry relative="1" as="geometry" />
        </mxCell>
        <mxCell id="PSpmaVROnx2pn07-DeVL-17" value="" style="curved=1;endArrow=classic;html=1;rounded=0;edgeStyle=orthogonalEdgeStyle;entryX=0.5;entryY=0;entryDx=0;entryDy=0;" edge="1" parent="1" target="Kt5mrEsqTJRS2e92DxHP-8">
          <mxGeometry width="50" height="50" relative="1" as="geometry">
            <mxPoint x="530" y="570" as="sourcePoint" />
            <mxPoint x="450" y="430" as="targetPoint" />
            <Array as="points">
              <mxPoint x="530" y="530" />
              <mxPoint x="340" y="530" />
            </Array>
          </mxGeometry>
        </mxCell>
        <mxCell id="PSpmaVROnx2pn07-DeVL-18" value="" style="curved=1;endArrow=classic;html=1;rounded=0;edgeStyle=orthogonalEdgeStyle;" edge="1" parent="1">
          <mxGeometry width="50" height="50" relative="1" as="geometry">
            <mxPoint x="250" y="580" as="sourcePoint" />
            <mxPoint x="70" y="570" as="targetPoint" />
            <Array as="points">
              <mxPoint x="250" y="530" />
              <mxPoint x="70" y="530" />
            </Array>
          </mxGeometry>
        </mxCell>
        <mxCell id="PSpmaVROnx2pn07-DeVL-19" value="" style="curved=1;endArrow=classic;html=1;rounded=0;edgeStyle=orthogonalEdgeStyle;entryX=0.5;entryY=0;entryDx=0;entryDy=0;" edge="1" parent="1">
          <mxGeometry width="50" height="50" relative="1" as="geometry">
            <mxPoint x="815" y="575" as="sourcePoint" />
            <mxPoint x="625" y="575" as="targetPoint" />
            <Array as="points">
              <mxPoint x="815" y="525" />
              <mxPoint x="625" y="525" />
            </Array>
          </mxGeometry>
        </mxCell>
      </root>
    </mxGraphModel>
  </diagram>
</mxfile>
